<svg xmlns="http://www.w3.org/2000/svg" width="1024" height="1024" viewBox="0 0 1024 1024" fill="none"><metadata><rdf:RDF xmlns:rdf="http://www.w3.org/1999/02/22-rdf-syntax-ns#" xmlns:dc="http://purl.org/dc/elements/1.1/"><rdf:Description><dc:creator>RealFaviconGenerator</dc:creator><dc:source>https://realfavicongenerator.net</dc:source></rdf:Description></rdf:RDF></metadata><g clip-path="url(#clip0_285_401)">
<g filter="url(#filter0_dd_285_401)">
<path d="M0 110C0 49.2487 49.2487 0 110 0H914C974.751 0 1024 49.2487 1024 110V914C1024 974.751 974.751 1024 914 1024H110C49.2487 1024 0 974.751 0 914V110Z" fill="url(#paint0_linear_285_401)"></path>
</g>
<path fill-rule="evenodd" clip-rule="evenodd" d="M480.145 157.623C457.723 160.18 439.711 171.759 425.188 192.95C411.737 212.577 411.478 213.998 410.67 272.161V320.17L382.4 320.324C352.597 321.087 346.597 322.037 336.096 327.656C323.878 334.192 313.692 348.434 309.53 364.796C305.597 380.258 306.339 404.708 311.13 417.502C315.524 429.24 329.906 443.752 341.405 448.051C350.424 451.423 361.102 452.812 398.139 455.432L410.67 455.92V559.513C410.689 679.118 409.306 697.781 415.575 729.189C422.453 763.641 436.093 788.269 463.542 815.803C499.188 851.557 540.733 866.96 601.636 867C627.306 867.018 637.405 865.327 650.904 858.752C665.43 851.677 678.66 835.666 683.275 819.577C689.178 798.992 685.284 773.565 673.593 756.361C664.847 743.493 657.024 739.866 629.067 735.722C598.729 731.224 585.912 726.9 577.243 718.237C569.68 710.678 566.544 702.979 563.231 683.826C561.777 675.424 561.444 657.095 561.069 564.907L560.627 455.92L600.184 455.911C651.898 455.902 657.542 454.943 669.001 444.232C675.03 438.596 679.748 429.963 682.82 418.948C685.696 408.632 686.391 376.917 683.978 366.082C678.668 342.227 662.984 326.839 638.958 321.915C632.254 320.541 623.043 320.17 595.608 320.17H560.771V186.582C560.771 186.582 559.408 174.379 554.446 168.675C549.485 162.971 545.979 156.805 513.047 157.005C497.077 157.102 482.272 157.38 480.145 157.623Z" fill="white"></path>
</g><defs>
<filter id="filter0_dd_285_401" x="-1" y="-4" width="1032" height="1032" filterUnits="userSpaceOnUse" color-interpolation-filters="sRGB">
<feFlood flood-opacity="0" result="BackgroundImageFix"></feFlood>
<feColorMatrix in="SourceAlpha" type="matrix" values="0 0 0 0 0 0 0 0 0 0 0 0 0 0 0 0 0 0 127 0" result="hardAlpha"></feColorMatrix>
<feMorphology radius="2" operator="erode" in="SourceAlpha" result="effect1_dropShadow_285_401"></feMorphology>
<feOffset dx="3"></feOffset>
<feGaussianBlur stdDeviation="3"></feGaussianBlur>
<feComposite in2="hardAlpha" operator="out"></feComposite>
<feColorMatrix type="matrix" values="0 0 0 0 0 0 0 0 0 0 0 0 0 0 0 0 0 0 0.08 0"></feColorMatrix>
<feBlend mode="normal" in2="BackgroundImageFix" result="effect1_dropShadow_285_401"></feBlend>
<feColorMatrix in="SourceAlpha" type="matrix" values="0 0 0 0 0 0 0 0 0 0 0 0 0 0 0 0 0 0 127 0" result="hardAlpha"></feColorMatrix>
<feMorphology radius="2" operator="erode" in="SourceAlpha" result="effect2_dropShadow_285_401"></feMorphology>
<feOffset dx="2"></feOffset>
<feGaussianBlur stdDeviation="2.5"></feGaussianBlur>
<feComposite in2="hardAlpha" operator="out"></feComposite>
<feColorMatrix type="matrix" values="0 0 0 0 0 0 0 0 0 0 0 0 0 0 0 0 0 0 0.06 0"></feColorMatrix>
<feBlend mode="normal" in2="effect1_dropShadow_285_401" result="effect2_dropShadow_285_401"></feBlend>
<feBlend mode="normal" in="SourceGraphic" in2="effect2_dropShadow_285_401" result="shape"></feBlend>
</filter>
<linearGradient id="paint0_linear_285_401" x1="512" y1="0" x2="512" y2="1024" gradientUnits="userSpaceOnUse">
<stop stop-color="#21BE64"></stop>
<stop offset="0.5" stop-color="#18B55C"></stop>
<stop offset="1" stop-color="#0FA552"></stop>
</linearGradient>
<clipPath id="clip0_285_401">
<rect width="1024" height="1024" fill="white"></rect>
</clipPath>
</defs></svg>