<svg width="2080" height="1146" viewBox="0 0 2080 1146" fill="none" xmlns="http://www.w3.org/2000/svg">
<g filter="url(#filter0_d_290_513)">
<path d="M144.043 278.527C145.448 198.031 211.87 133.915 292.4 135.32L529.199 139.452C558.19 139.957 581.281 163.859 580.775 192.838L572.59 661.572L224.974 655.507C176.656 654.664 138.17 614.827 139.014 566.53L144.043 278.527Z" fill="url(#paint0_linear_290_513)"/>
<path d="M144.043 278.527C145.448 198.031 211.87 133.915 292.4 135.32L529.199 139.452C558.19 139.957 581.281 163.859 580.775 192.838L572.59 661.572L224.974 655.507C176.656 654.664 138.17 614.827 139.014 566.53L144.043 278.527Z" fill="url(#paint1_linear_290_513)" fill-opacity="0.08"/>
<path d="M617.08 179.733C618.597 150.79 643.3 128.556 672.256 130.073L835.367 138.618C915.798 142.831 977.584 211.422 973.369 291.82L966.103 430.406C963.573 478.644 922.401 515.7 874.142 513.172L600.35 498.829L617.08 179.733Z" fill="url(#paint2_linear_290_513)"/>
<path d="M617.08 179.733C618.597 150.79 643.3 128.556 672.256 130.073L835.367 138.618C915.798 142.831 977.584 211.422 973.369 291.82L966.103 430.406C963.573 478.644 922.401 515.7 874.142 513.172L600.35 498.829L617.08 179.733Z" fill="url(#paint3_linear_290_513)"/>
<path d="M142.004 780.265C142.004 731.96 181.18 692.801 229.505 692.801H577.174V1005.34C577.174 1011.78 571.951 1017 565.508 1017H287.839C207.297 1017 142.004 951.735 142.004 871.227V780.265Z" fill="url(#paint4_linear_290_513)"/>
<path d="M142.004 780.265C142.004 731.96 181.18 692.801 229.505 692.801H577.174V1005.34C577.174 1011.78 571.951 1017 565.508 1017H287.839C207.297 1017 142.004 951.735 142.004 871.227V780.265Z" fill="url(#paint5_linear_290_513)"/>
<path d="M604.019 545.318L878.021 535.753C926.317 534.067 966.835 571.836 968.522 620.111L976.909 860.199C979.72 940.658 916.746 1008.16 836.253 1010.97L673.018 1016.67C644.041 1017.68 619.73 995.019 618.718 966.053L604.019 545.318Z" fill="url(#paint6_linear_290_513)"/>
<path d="M604.019 545.318L878.021 535.753C926.317 534.067 966.835 571.836 968.522 620.111L976.909 860.199C979.72 940.658 916.746 1008.16 836.253 1010.97L673.018 1016.67C644.041 1017.68 619.73 995.019 618.718 966.053L604.019 545.318Z" fill="url(#paint7_linear_290_513)"/>
<path fill-rule="evenodd" clip-rule="evenodd" d="M518.981 202.547C493.58 205.458 473.176 218.637 456.725 242.758C441.487 265.099 441.193 266.717 440.278 332.921V387.568L408.254 387.744C374.492 388.612 367.695 389.694 355.799 396.089C341.959 403.529 330.42 419.74 325.706 438.365C321.25 455.963 322.091 483.795 327.517 498.357C332.496 511.718 348.788 528.237 361.814 533.13C372.031 536.968 384.127 538.55 426.083 541.532L440.278 542.087V660.002C440.3 796.145 438.733 817.388 445.835 853.138C453.626 892.353 469.077 920.387 500.172 951.728C540.552 992.425 587.615 1009.96 656.607 1010C685.687 1010.02 697.127 1008.1 712.419 1000.61C728.874 992.561 743.861 974.336 749.089 956.023C755.776 932.593 751.364 903.649 738.121 884.067C728.213 869.419 719.351 865.291 687.681 860.574C653.314 855.455 638.795 850.533 628.974 840.672C620.407 832.068 616.855 823.304 613.101 801.504C611.455 791.94 611.077 771.076 610.653 666.142L610.151 542.087L654.962 542.077C713.545 542.066 719.938 540.975 732.919 528.783C739.749 522.368 745.094 512.541 748.573 500.003C751.831 488.261 752.618 452.161 749.886 439.828C743.87 412.674 726.103 395.16 698.886 389.554C691.292 387.99 680.857 387.568 649.779 387.568H610.315V235.51C610.315 235.51 608.77 221.62 603.15 215.127C597.53 208.634 593.558 201.616 556.253 201.843C538.161 201.954 521.389 202.271 518.981 202.547Z" fill="#FCFCFC"/>
</g>
<g filter="url(#filter1_d_290_513)">
<g filter="url(#filter2_d_290_513)">
<mask id="path-2-inside-1_290_513" fill="white">
<path d="M1043.52 630.549C1019.85 632.618 1002.11 640.95 990.293 655.544C978.899 669.634 972.856 691.44 972.164 720.961C972.489 724.673 974.507 726.367 978.22 726.043L1114.66 714.113C1118.37 713.789 1120.07 711.77 1119.74 708.057C1113.02 652.53 1087.61 626.694 1043.52 630.549ZM1088.13 940.192C1027.34 945.507 979.085 933.827 943.376 905.151C908.091 875.969 887.75 830.518 882.353 768.795C876.997 707.537 887.538 659.619 913.975 625.041C940.412 590.463 981.244 570.76 1036.47 565.932C1139.49 556.924 1197.51 610.772 1210.52 727.476C1211.96 738.573 1208.83 748.2 1201.12 756.356C1193.42 764.511 1184 769.076 1172.86 770.05L982.819 786.666C978.642 787.031 977.201 789.261 978.494 793.357C984.461 824.166 996.659 846.013 1015.09 858.898C1033.94 871.279 1060.07 876.008 1093.49 873.087C1114.37 871.261 1137.27 865.752 1162.19 856.559C1170.34 853.508 1178.12 854.231 1185.52 858.727C1193.39 863.183 1197.72 869.819 1198.49 878.637C1199.42 889.31 1197 899.108 1191.24 908.03C1185.89 916.446 1178.2 922.029 1168.15 924.778C1142.65 932.619 1115.98 937.757 1088.13 940.192Z"/>
<path d="M1503.55 936.08C1492.84 936.08 1483.52 932.121 1475.6 924.201C1467.68 916.282 1463.72 906.965 1463.72 896.25V451.83C1463.72 441.116 1467.68 431.799 1475.6 423.879C1483.52 415.96 1492.84 412 1503.55 412H1517.53C1528.24 412 1537.56 415.96 1545.48 423.879C1553.4 431.799 1557.36 441.116 1557.36 451.83V720.858C1557.36 721.324 1557.59 721.557 1558.05 721.557H1558.75L1664.97 602.066C1682.2 582.501 1704.1 572.718 1730.65 572.718H1760C1767.45 572.718 1772.58 576.212 1775.37 583.2C1778.63 590.187 1777.7 596.476 1772.58 602.066L1644.7 743.219C1642.37 746.014 1642.37 749.042 1644.7 752.303L1773.98 906.033C1779.1 912.089 1779.8 918.611 1776.07 925.599C1772.81 932.586 1767.45 936.08 1760 936.08H1730.65C1704.1 936.08 1682.44 925.832 1665.67 905.334L1558.75 776.061C1558.75 775.595 1558.52 775.362 1558.05 775.362C1557.59 775.362 1557.36 775.595 1557.36 776.061V896.25C1557.36 906.965 1553.4 916.282 1545.48 924.201C1537.56 932.121 1528.24 936.08 1517.53 936.08H1503.55Z"/>
<path d="M1883 936.08C1872.28 936.08 1862.97 932.121 1855.05 924.201C1847.13 916.282 1843.17 906.965 1843.17 896.25V612.548C1843.17 601.834 1847.13 592.517 1855.05 584.597C1862.97 576.678 1872.28 572.718 1883 572.718H1901.17C1911.88 572.718 1921.2 576.678 1929.12 584.597C1937.04 592.517 1941 601.834 1941 612.548V896.25C1941 906.965 1937.04 916.282 1929.12 924.201C1921.2 932.121 1911.88 936.08 1901.17 936.08H1883ZM1883 495.853C1872.28 495.853 1862.97 491.893 1855.05 483.974C1847.13 476.054 1843.17 466.737 1843.17 456.023V451.83C1843.17 441.116 1847.13 431.799 1855.05 423.879C1862.97 415.96 1872.28 412 1883 412H1901.17C1911.88 412 1921.2 415.96 1929.12 423.879C1937.04 431.799 1941 441.116 1941 451.83V456.023C1941 466.737 1937.04 476.054 1929.12 483.974C1921.2 491.893 1911.88 495.853 1901.17 495.853H1883Z"/>
<path fill-rule="evenodd" clip-rule="evenodd" d="M1288.72 924.201C1296.64 932.121 1305.96 936.08 1316.67 936.08H1334.84C1345.56 936.08 1354.87 932.121 1362.79 924.201C1370.71 916.282 1374.67 906.965 1374.67 896.25V612.548C1374.67 601.834 1370.71 592.517 1362.79 584.597C1354.87 576.678 1345.56 572.718 1334.84 572.718H1316.67C1305.96 572.718 1296.64 576.678 1288.72 584.597C1280.8 592.517 1276.84 601.834 1276.84 612.548V896.25C1276.84 906.965 1280.8 916.282 1288.72 924.201Z"/>
<path d="M1316.67 495.853C1305.96 495.853 1296.64 491.893 1288.72 483.974C1280.8 476.054 1276.84 466.737 1276.84 456.023V451.83C1276.84 441.116 1280.8 431.799 1288.72 423.879C1296.64 415.96 1305.96 412 1316.67 412H1334.84C1345.56 412 1354.87 415.96 1362.79 423.879C1370.71 431.799 1374.67 441.116 1374.67 451.83V456.023C1374.67 466.737 1370.71 476.054 1362.79 483.974C1354.87 491.893 1345.56 495.853 1334.84 495.853H1316.67Z"/>
<path d="M1316.67 495.853C1305.96 495.853 1296.64 491.893 1288.72 483.974C1280.8 476.054 1276.84 466.737 1276.84 456.023V451.83C1276.84 441.116 1280.8 431.799 1288.72 423.879C1296.64 415.96 1305.96 412 1316.67 412H1334.84C1345.56 412 1354.87 415.96 1362.79 423.879C1370.71 431.799 1374.67 441.116 1374.67 451.83V456.023C1374.67 466.737 1370.71 476.054 1362.79 483.974C1354.87 491.893 1345.56 495.853 1334.84 495.853H1316.67Z"/>
</mask>
<path d="M1043.52 630.549C1019.85 632.618 1002.11 640.95 990.293 655.544C978.899 669.634 972.856 691.44 972.164 720.961C972.489 724.673 974.507 726.367 978.22 726.043L1114.66 714.113C1118.37 713.789 1120.07 711.77 1119.74 708.057C1113.02 652.53 1087.61 626.694 1043.52 630.549ZM1088.13 940.192C1027.34 945.507 979.085 933.827 943.376 905.151C908.091 875.969 887.75 830.518 882.353 768.795C876.997 707.537 887.538 659.619 913.975 625.041C940.412 590.463 981.244 570.76 1036.47 565.932C1139.49 556.924 1197.51 610.772 1210.52 727.476C1211.96 738.573 1208.83 748.2 1201.12 756.356C1193.42 764.511 1184 769.076 1172.86 770.05L982.819 786.666C978.642 787.031 977.201 789.261 978.494 793.357C984.461 824.166 996.659 846.013 1015.09 858.898C1033.94 871.279 1060.07 876.008 1093.49 873.087C1114.37 871.261 1137.27 865.752 1162.19 856.559C1170.34 853.508 1178.12 854.231 1185.52 858.727C1193.39 863.183 1197.72 869.819 1198.49 878.637C1199.42 889.31 1197 899.108 1191.24 908.03C1185.89 916.446 1178.2 922.029 1168.15 924.778C1142.65 932.619 1115.98 937.757 1088.13 940.192Z" fill="#2C2C2E"/>
<path d="M1503.55 936.08C1492.84 936.08 1483.52 932.121 1475.6 924.201C1467.68 916.282 1463.72 906.965 1463.72 896.25V451.83C1463.72 441.116 1467.68 431.799 1475.6 423.879C1483.52 415.96 1492.84 412 1503.55 412H1517.53C1528.24 412 1537.56 415.96 1545.48 423.879C1553.4 431.799 1557.36 441.116 1557.36 451.83V720.858C1557.36 721.324 1557.59 721.557 1558.05 721.557H1558.75L1664.97 602.066C1682.2 582.501 1704.1 572.718 1730.65 572.718H1760C1767.45 572.718 1772.58 576.212 1775.37 583.2C1778.63 590.187 1777.7 596.476 1772.58 602.066L1644.7 743.219C1642.37 746.014 1642.37 749.042 1644.7 752.303L1773.98 906.033C1779.1 912.089 1779.8 918.611 1776.07 925.599C1772.81 932.586 1767.45 936.08 1760 936.08H1730.65C1704.1 936.08 1682.44 925.832 1665.67 905.334L1558.75 776.061C1558.75 775.595 1558.52 775.362 1558.05 775.362C1557.59 775.362 1557.36 775.595 1557.36 776.061V896.25C1557.36 906.965 1553.4 916.282 1545.48 924.201C1537.56 932.121 1528.24 936.08 1517.53 936.08H1503.55Z" fill="#2C2C2E"/>
<path d="M1883 936.08C1872.28 936.08 1862.97 932.121 1855.05 924.201C1847.13 916.282 1843.17 906.965 1843.17 896.25V612.548C1843.17 601.834 1847.13 592.517 1855.05 584.597C1862.97 576.678 1872.28 572.718 1883 572.718H1901.17C1911.88 572.718 1921.2 576.678 1929.12 584.597C1937.04 592.517 1941 601.834 1941 612.548V896.25C1941 906.965 1937.04 916.282 1929.12 924.201C1921.2 932.121 1911.88 936.08 1901.17 936.08H1883ZM1883 495.853C1872.28 495.853 1862.97 491.893 1855.05 483.974C1847.13 476.054 1843.17 466.737 1843.17 456.023V451.83C1843.17 441.116 1847.13 431.799 1855.05 423.879C1862.97 415.96 1872.28 412 1883 412H1901.17C1911.88 412 1921.2 415.96 1929.12 423.879C1937.04 431.799 1941 441.116 1941 451.83V456.023C1941 466.737 1937.04 476.054 1929.12 483.974C1921.2 491.893 1911.88 495.853 1901.17 495.853H1883Z" fill="#2C2C2E"/>
<path fill-rule="evenodd" clip-rule="evenodd" d="M1288.72 924.201C1296.64 932.121 1305.96 936.08 1316.67 936.08H1334.84C1345.56 936.08 1354.87 932.121 1362.79 924.201C1370.71 916.282 1374.67 906.965 1374.67 896.25V612.548C1374.67 601.834 1370.71 592.517 1362.79 584.597C1354.87 576.678 1345.56 572.718 1334.84 572.718H1316.67C1305.96 572.718 1296.64 576.678 1288.72 584.597C1280.8 592.517 1276.84 601.834 1276.84 612.548V896.25C1276.84 906.965 1280.8 916.282 1288.72 924.201Z" fill="#2C2C2E"/>
<path d="M1316.67 495.853C1305.96 495.853 1296.64 491.893 1288.72 483.974C1280.8 476.054 1276.84 466.737 1276.84 456.023V451.83C1276.84 441.116 1280.8 431.799 1288.72 423.879C1296.64 415.96 1305.96 412 1316.67 412H1334.84C1345.56 412 1354.87 415.96 1362.79 423.879C1370.71 431.799 1374.67 441.116 1374.67 451.83V456.023C1374.67 466.737 1370.71 476.054 1362.79 483.974C1354.87 491.893 1345.56 495.853 1334.84 495.853H1316.67Z" fill="#63B243"/>
<path d="M1316.67 495.853C1305.96 495.853 1296.64 491.893 1288.72 483.974C1280.8 476.054 1276.84 466.737 1276.84 456.023V451.83C1276.84 441.116 1280.8 431.799 1288.72 423.879C1296.64 415.96 1305.96 412 1316.67 412H1334.84C1345.56 412 1354.87 415.96 1362.79 423.879C1370.71 431.799 1374.67 441.116 1374.67 451.83V456.023C1374.67 466.737 1370.71 476.054 1362.79 483.974C1354.87 491.893 1345.56 495.853 1334.84 495.853H1316.67Z" fill="#63B243"/>
<path d="M1043.52 630.549C1019.85 632.618 1002.11 640.95 990.293 655.544C978.899 669.634 972.856 691.44 972.164 720.961C972.489 724.673 974.507 726.367 978.22 726.043L1114.66 714.113C1118.37 713.789 1120.07 711.77 1119.74 708.057C1113.02 652.53 1087.61 626.694 1043.52 630.549ZM1088.13 940.192C1027.34 945.507 979.085 933.827 943.376 905.151C908.091 875.969 887.75 830.518 882.353 768.795C876.997 707.537 887.538 659.619 913.975 625.041C940.412 590.463 981.244 570.76 1036.47 565.932C1139.49 556.924 1197.51 610.772 1210.52 727.476C1211.96 738.573 1208.83 748.2 1201.12 756.356C1193.42 764.511 1184 769.076 1172.86 770.05L982.819 786.666C978.642 787.031 977.201 789.261 978.494 793.357C984.461 824.166 996.659 846.013 1015.09 858.898C1033.94 871.279 1060.07 876.008 1093.49 873.087C1114.37 871.261 1137.27 865.752 1162.19 856.559C1170.34 853.508 1178.12 854.231 1185.52 858.727C1193.39 863.183 1197.72 869.819 1198.49 878.637C1199.42 889.31 1197 899.108 1191.24 908.03C1185.89 916.446 1178.2 922.029 1168.15 924.778C1142.65 932.619 1115.98 937.757 1088.13 940.192Z" stroke="#2C2C2E" stroke-width="2" mask="url(#path-2-inside-1_290_513)"/>
<path d="M1503.55 936.08C1492.84 936.08 1483.52 932.121 1475.6 924.201C1467.68 916.282 1463.72 906.965 1463.72 896.25V451.83C1463.72 441.116 1467.68 431.799 1475.6 423.879C1483.52 415.96 1492.84 412 1503.55 412H1517.53C1528.24 412 1537.56 415.96 1545.48 423.879C1553.4 431.799 1557.36 441.116 1557.36 451.83V720.858C1557.36 721.324 1557.59 721.557 1558.05 721.557H1558.75L1664.97 602.066C1682.2 582.501 1704.1 572.718 1730.65 572.718H1760C1767.45 572.718 1772.58 576.212 1775.37 583.2C1778.63 590.187 1777.7 596.476 1772.58 602.066L1644.7 743.219C1642.37 746.014 1642.37 749.042 1644.7 752.303L1773.98 906.033C1779.1 912.089 1779.8 918.611 1776.07 925.599C1772.81 932.586 1767.45 936.08 1760 936.08H1730.65C1704.1 936.08 1682.44 925.832 1665.67 905.334L1558.75 776.061C1558.75 775.595 1558.52 775.362 1558.05 775.362C1557.59 775.362 1557.36 775.595 1557.36 776.061V896.25C1557.36 906.965 1553.4 916.282 1545.48 924.201C1537.56 932.121 1528.24 936.08 1517.53 936.08H1503.55Z" stroke="#2C2C2E" stroke-width="2" mask="url(#path-2-inside-1_290_513)"/>
<path d="M1883 936.08C1872.28 936.08 1862.97 932.121 1855.05 924.201C1847.13 916.282 1843.17 906.965 1843.17 896.25V612.548C1843.17 601.834 1847.13 592.517 1855.05 584.597C1862.97 576.678 1872.28 572.718 1883 572.718H1901.17C1911.88 572.718 1921.2 576.678 1929.12 584.597C1937.04 592.517 1941 601.834 1941 612.548V896.25C1941 906.965 1937.04 916.282 1929.12 924.201C1921.2 932.121 1911.88 936.08 1901.17 936.08H1883ZM1883 495.853C1872.28 495.853 1862.97 491.893 1855.05 483.974C1847.13 476.054 1843.17 466.737 1843.17 456.023V451.83C1843.17 441.116 1847.13 431.799 1855.05 423.879C1862.97 415.96 1872.28 412 1883 412H1901.17C1911.88 412 1921.2 415.96 1929.12 423.879C1937.04 431.799 1941 441.116 1941 451.83V456.023C1941 466.737 1937.04 476.054 1929.12 483.974C1921.2 491.893 1911.88 495.853 1901.17 495.853H1883Z" stroke="#2C2C2E" stroke-width="2" mask="url(#path-2-inside-1_290_513)"/>
<path fill-rule="evenodd" clip-rule="evenodd" d="M1288.72 924.201C1296.64 932.121 1305.96 936.08 1316.67 936.08H1334.84C1345.56 936.08 1354.87 932.121 1362.79 924.201C1370.71 916.282 1374.67 906.965 1374.67 896.25V612.548C1374.67 601.834 1370.71 592.517 1362.79 584.597C1354.87 576.678 1345.56 572.718 1334.84 572.718H1316.67C1305.96 572.718 1296.64 576.678 1288.72 584.597C1280.8 592.517 1276.84 601.834 1276.84 612.548V896.25C1276.84 906.965 1280.8 916.282 1288.72 924.201Z" stroke="#2C2C2E" stroke-width="2" mask="url(#path-2-inside-1_290_513)"/>
<path d="M1316.67 495.853C1305.96 495.853 1296.64 491.893 1288.72 483.974C1280.8 476.054 1276.84 466.737 1276.84 456.023V451.83C1276.84 441.116 1280.8 431.799 1288.72 423.879C1296.64 415.96 1305.96 412 1316.67 412H1334.84C1345.56 412 1354.87 415.96 1362.79 423.879C1370.71 431.799 1374.67 441.116 1374.67 451.83V456.023C1374.67 466.737 1370.71 476.054 1362.79 483.974C1354.87 491.893 1345.56 495.853 1334.84 495.853H1316.67Z" stroke="#2C2C2E" stroke-width="2" mask="url(#path-2-inside-1_290_513)"/>
<path d="M1316.67 495.853C1305.96 495.853 1296.64 491.893 1288.72 483.974C1280.8 476.054 1276.84 466.737 1276.84 456.023V451.83C1276.84 441.116 1280.8 431.799 1288.72 423.879C1296.64 415.96 1305.96 412 1316.67 412H1334.84C1345.56 412 1354.87 415.96 1362.79 423.879C1370.71 431.799 1374.67 441.116 1374.67 451.83V456.023C1374.67 466.737 1370.71 476.054 1362.79 483.974C1354.87 491.893 1345.56 495.853 1334.84 495.853H1316.67Z" stroke="#2C2C2E" stroke-width="2" mask="url(#path-2-inside-1_290_513)"/>
</g>
<path d="M1883 412.5H1901.17C1911.74 412.5 1920.94 416.402 1928.77 424.233C1936.6 432.063 1940.5 441.255 1940.5 451.83V456.023C1940.5 466.598 1936.6 475.79 1928.77 483.62C1920.94 491.451 1911.74 495.353 1901.17 495.353H1883C1872.43 495.353 1863.23 491.451 1855.4 483.62C1847.57 475.79 1843.67 466.598 1843.67 456.023V451.83C1843.67 441.255 1847.57 432.063 1855.4 424.233C1863.23 416.402 1872.43 412.5 1883 412.5Z" fill="#63B243" stroke="#63B243"/>
</g>
<defs>
<filter id="filter0_d_290_513" x="99" y="102" width="918" height="967" filterUnits="userSpaceOnUse" color-interpolation-filters="sRGB">
<feFlood flood-opacity="0" result="BackgroundImageFix"/>
<feColorMatrix in="SourceAlpha" type="matrix" values="0 0 0 0 0 0 0 0 0 0 0 0 0 0 0 0 0 0 127 0" result="hardAlpha"/>
<feOffset dy="12"/>
<feGaussianBlur stdDeviation="20"/>
<feComposite in2="hardAlpha" operator="out"/>
<feColorMatrix type="matrix" values="0 0 0 0 0 0 0 0 0 0 0 0 0 0 0 0 0 0 0.15 0"/>
<feBlend mode="normal" in2="BackgroundImageFix" result="effect1_dropShadow_290_513"/>
<feBlend mode="normal" in="SourceGraphic" in2="effect1_dropShadow_290_513" result="shape"/>
</filter>
<filter id="filter1_d_290_513" x="856" y="399" width="1110" height="579.439" filterUnits="userSpaceOnUse" color-interpolation-filters="sRGB">
<feFlood flood-opacity="0" result="BackgroundImageFix"/>
<feColorMatrix in="SourceAlpha" type="matrix" values="0 0 0 0 0 0 0 0 0 0 0 0 0 0 0 0 0 0 127 0" result="hardAlpha"/>
<feOffset dy="12"/>
<feGaussianBlur stdDeviation="12.5"/>
<feComposite in2="hardAlpha" operator="out"/>
<feColorMatrix type="matrix" values="0 0 0 0 0 0 0 0 0 0 0 0 0 0 0 0 0 0 0.08 0"/>
<feBlend mode="normal" in2="BackgroundImageFix" result="effect1_dropShadow_290_513"/>
<feBlend mode="normal" in="SourceGraphic" in2="effect1_dropShadow_290_513" result="shape"/>
</filter>
<filter id="filter2_d_290_513" x="869" y="412" width="1084" height="553.439" filterUnits="userSpaceOnUse" color-interpolation-filters="sRGB">
<feFlood flood-opacity="0" result="BackgroundImageFix"/>
<feColorMatrix in="SourceAlpha" type="matrix" values="0 0 0 0 0 0 0 0 0 0 0 0 0 0 0 0 0 0 127 0" result="hardAlpha"/>
<feOffset dy="12"/>
<feGaussianBlur stdDeviation="6"/>
<feComposite in2="hardAlpha" operator="out"/>
<feColorMatrix type="matrix" values="0 0 0 0 0 0 0 0 0 0 0 0 0 0 0 0 0 0 0.08 0"/>
<feBlend mode="normal" in2="BackgroundImageFix" result="effect1_dropShadow_290_513"/>
<feBlend mode="normal" in="SourceGraphic" in2="effect1_dropShadow_290_513" result="shape"/>
</filter>
<linearGradient id="paint0_linear_290_513" x1="364.14" y1="136.572" x2="355.046" y2="657.776" gradientUnits="userSpaceOnUse">
<stop stop-color="#F7C84B"/>
<stop offset="1" stop-color="#E7AC1A"/>
</linearGradient>
<linearGradient id="paint1_linear_290_513" x1="364.14" y1="136.572" x2="355.046" y2="657.776" gradientUnits="userSpaceOnUse">
<stop stop-color="white" stop-opacity="0.1"/>
<stop offset="0.5" stop-color="white" stop-opacity="0.04"/>
<stop offset="1" stop-color="white" stop-opacity="0"/>
</linearGradient>
<linearGradient id="paint2_linear_290_513" x1="800.414" y1="136.787" x2="780.953" y2="508.29" gradientUnits="userSpaceOnUse">
<stop stop-color="#FF4A4A"/>
<stop offset="1" stop-color="#D91F26"/>
</linearGradient>
<linearGradient id="paint3_linear_290_513" x1="800.414" y1="136.787" x2="780.953" y2="508.29" gradientUnits="userSpaceOnUse">
<stop stop-color="white" stop-opacity="0.1"/>
<stop offset="0.5" stop-color="white" stop-opacity="0.04"/>
<stop offset="1" stop-color="white" stop-opacity="0"/>
</linearGradient>
<linearGradient id="paint4_linear_290_513" x1="359.589" y1="692.801" x2="359.589" y2="1017" gradientUnits="userSpaceOnUse">
<stop stop-color="#71C94B"/>
<stop offset="1" stop-color="#4AA133"/>
</linearGradient>
<linearGradient id="paint5_linear_290_513" x1="359.589" y1="692.801" x2="359.589" y2="1017" gradientUnits="userSpaceOnUse">
<stop stop-color="white" stop-opacity="0"/>
<stop offset="0.5" stop-color="white" stop-opacity="0.04"/>
<stop offset="1" stop-color="white" stop-opacity="0.1"/>
</linearGradient>
<linearGradient id="paint6_linear_290_513" x1="784.744" y1="539.009" x2="801.261" y2="1012.19" gradientUnits="userSpaceOnUse">
<stop stop-color="#5E72FF"/>
<stop offset="0.503951" stop-color="#4E63E9"/>
<stop offset="1" stop-color="#3E54D3"/>
</linearGradient>
<linearGradient id="paint7_linear_290_513" x1="784.744" y1="539.009" x2="801.261" y2="1012.19" gradientUnits="userSpaceOnUse">
<stop stop-color="white" stop-opacity="0"/>
<stop offset="0.503951" stop-color="white" stop-opacity="0.04"/>
<stop offset="1" stop-color="white" stop-opacity="0.1"/>
</linearGradient>
</defs>
</svg>
