<svg width="284" height="299" viewBox="0 0 284 299" fill="none" xmlns="http://www.w3.org/2000/svg">
<path d="M30.7948 3.01734C20.2397 6.78341 6.81839 20.5085 3.14875 31.2915C0.714762 38.4401 0.14113 50.8024 0.176491 95.3562C0.225603 158.373 1.0664 162.652 15.1262 171.399C22.491 175.983 23.9388 176.129 62.0143 176.129H101.304V138.763L87.8805 137.78C75.7813 136.893 73.8915 136.164 68.7269 130.374C63.9355 125.003 62.9965 122.258 62.9965 113.605C62.9965 96.4595 71.9074 88.6147 91.3832 88.6147H102.286V68.2561C102.286 50.3815 102.824 47.1031 106.706 41.396C114.503 29.9286 120.734 26.666 134.843 26.666H147.469V20.0778C147.469 15.2085 140.79 6.80306 140.79 6.80306C140.79 6.80306 136.005 1.8501 133.584 0.983346C131.164 0.116596 86.2755 0.203102 86.2755 0.203102C50.6557 0.268 36.4879 0.985816 30.7948 3.01734Z" fill="#EFAC2F"/>
<path d="M159.256 183.075C159.256 231.814 160.409 238.813 169.404 244.709C171.927 246.361 177.967 248.255 182.83 248.917C198.773 251.094 200.59 251.879 204.492 258.288C209.395 266.338 209.417 276.763 204.545 284.161C199.502 291.819 193.416 294.956 183.437 295.04C178.908 295.078 174.657 295.994 173.989 297.076C173.196 298.362 185.91 299.027 210.707 298.999C254.23 298.95 259.54 297.597 271.6 283.494C282.619 270.605 284 262.703 284 212.511C284 188.174 283.338 165.897 282.527 163.006C280.315 155.112 271.394 145.532 262.471 141.477C255.478 138.297 248.861 137.861 206.894 137.823L159.256 137.78V183.075Z" fill="#455DD5"/>
<path d="M20.994 190.945C13.5958 193.164 6.18779 200.128 2.82657 208.024C-1.38723 217.922 -0.746808 256.599 3.79702 266.611C8.28585 276.501 19.3439 286.324 33.439 292.944L44.334 298.059H100.809C137.102 298.059 157.311 297.357 157.356 296.092C157.395 295.011 154.29 293.473 150.453 292.674C138.902 290.273 128.863 284.061 119.275 273.384C106.252 258.884 102.286 244.856 102.286 213.288V188.912L64.4699 189.081C43.67 189.173 24.1077 190.013 20.994 190.945Z" fill="#63B243"/>
<path d="M176.47 3.19432C166.408 8.65956 165.149 14.2114 165.149 53.1171V88.6147H178.017C199.689 88.6147 209.224 97.2462 208.077 115.825L207.511 124.997L231.022 125.562C258.902 126.23 268.378 123.558 276.667 112.69C281.969 105.74 282.043 105.225 282.65 71.7292C283.22 40.4127 282.937 37.0399 278.965 27.7987C274.323 16.9941 264.569 7.13739 254.248 2.82066C244.775 -1.14208 183.914 -0.849048 176.47 3.19432Z" fill="#E02828"/>
<path d="M30.7948 3.01734C20.2397 6.78341 6.81839 20.5085 3.14875 31.2915C0.714762 38.4401 0.14113 50.8024 0.176491 95.3562C0.225603 158.373 1.0664 162.652 15.1262 171.399C22.491 175.983 23.9388 176.129 62.0143 176.129H101.304V138.763L87.8805 137.78C75.7813 136.893 73.8915 136.164 68.7269 130.374C63.9355 125.003 62.9965 122.258 62.9965 113.605C62.9965 96.4595 71.9074 88.6147 91.3832 88.6147H102.286V68.2561C102.286 50.3815 102.824 47.1031 106.706 41.396C114.503 29.9286 120.734 26.666 134.843 26.666H147.469V20.0778C147.469 15.2085 140.79 6.80306 140.79 6.80306C140.79 6.80306 136.005 1.8501 133.584 0.983346C131.164 0.116596 86.2755 0.203102 86.2755 0.203102C50.6557 0.268 36.4879 0.985816 30.7948 3.01734Z" fill="black"/>
<path fill-rule="evenodd" clip-rule="evenodd" d="M176.47 3.19432C166.408 8.65955 165.149 14.2113 165.149 53.1169V88.6144H178.017C199.689 88.6144 209.224 97.2458 208.077 115.824L207.511 124.997L231.022 125.561C258.902 126.23 268.378 123.557 276.667 112.69C281.969 105.74 282.043 105.224 282.65 71.729C283.22 40.4126 282.937 37.0398 278.965 27.7987C274.323 16.9941 264.569 7.13738 254.248 2.82066C244.775 -1.14208 183.914 -0.849049 176.47 3.19432ZM159.256 183.075C159.256 231.814 160.409 238.813 169.404 244.709C171.927 246.361 177.967 248.255 182.83 248.917C198.773 251.094 200.59 251.879 204.492 258.288C209.395 266.338 209.417 276.763 204.545 284.161C199.502 291.819 193.416 294.956 183.437 295.04C178.908 295.078 174.657 295.994 173.989 297.076C173.196 298.362 185.91 299.027 210.707 298.999C254.23 298.95 259.54 297.597 271.6 283.494C282.619 270.605 284 262.703 284 212.511C284 188.174 283.338 165.897 282.527 163.006C280.315 155.112 271.394 145.532 262.471 141.477C255.478 138.297 248.861 137.86 206.894 137.823L159.256 137.78V183.075ZM20.994 190.945C13.5958 193.164 6.18779 200.127 2.82657 208.023C-1.38723 217.921 -0.746808 256.599 3.79702 266.611C8.28585 276.501 19.3439 286.324 33.439 292.944L44.334 298.059H100.809C137.102 298.059 157.311 297.357 157.356 296.092C157.395 295.011 154.29 293.473 150.453 292.675C138.902 290.273 128.863 284.061 119.275 273.384C106.252 258.884 102.286 244.856 102.286 213.288V188.912L64.4699 189.081C43.67 189.173 24.1077 190.013 20.994 190.945Z" fill="black"/>
</svg>
