<svg width="353" height="157" viewBox="0 0 353 157" fill="none" xmlns="http://www.w3.org/2000/svg">
<g filter="url(#filter0_d_8_162)">
<path d="M17.6758 1.53427C12.3028 3.44927 5.47084 10.4283 3.60284 15.9113C2.36384 19.5463 2.07184 25.8324 2.08984 48.4874C2.11484 80.5304 2.54284 82.7062 9.69984 87.1542C13.4488 89.4852 14.1858 89.5592 33.5678 89.5592H53.5678V70.5593L46.7348 70.0593C40.5758 69.6083 39.6138 69.2374 36.9848 66.2934C34.5458 63.5624 34.0678 62.1664 34.0678 57.7664C34.0678 49.0484 38.6038 45.0594 48.5178 45.0594H54.0678V34.7073C54.0678 25.6183 54.3418 23.9513 56.3178 21.0493C60.2868 15.2183 63.4588 13.5593 70.6408 13.5593H77.0678V10.2093C77.0678 7.73329 73.6678 3.45926 73.6678 3.45926C73.6678 3.45926 71.2322 0.940749 70 0.500018C68.7678 0.0592872 45.9178 0.103275 45.9178 0.103275C27.7858 0.136275 20.5738 0.501274 17.6758 1.53427Z" fill="#EFAC2F"/>
<path d="M83.0678 93.0912C83.0678 117.874 83.6548 121.433 88.2338 124.431C89.5178 125.271 92.5928 126.234 95.0678 126.571C103.184 127.678 104.109 128.077 106.095 131.336C108.591 135.429 108.602 140.73 106.122 144.492C103.555 148.386 100.457 149.981 95.3768 150.024C93.0718 150.043 90.9078 150.509 90.5678 151.059C90.1638 151.713 96.6358 152.051 109.259 152.037C131.414 152.012 134.117 151.324 140.256 144.153C145.865 137.599 146.568 133.581 146.568 108.059C146.568 95.6842 146.231 84.3563 145.818 82.8863C144.692 78.8723 140.151 74.0012 135.609 71.9392C132.049 70.3222 128.681 70.1003 107.318 70.0813L83.0678 70.0593V93.0912Z" fill="#455DD5"/>
<path d="M12.6868 97.0932C8.92084 98.2212 5.14984 101.762 3.43884 105.777C1.29384 110.81 1.61984 130.477 3.93284 135.568C6.21784 140.597 11.8468 145.592 19.0218 148.958L24.5678 151.559H53.3158C71.7908 151.559 82.0778 151.202 82.1008 150.559C82.1208 150.009 80.5398 149.227 78.5868 148.821C72.7068 147.6 67.5968 144.441 62.7158 139.012C56.0868 131.639 54.0678 124.506 54.0678 108.454V96.0592L34.8178 96.1452C24.2298 96.1922 14.2718 96.6192 12.6868 97.0932Z" fill="#63B243"/>
<path d="M91.8308 1.62427C86.7088 4.40327 86.0678 7.22631 86.0678 27.0093V45.0594H92.6178C103.65 45.0594 108.504 49.4484 107.92 58.8954L107.632 63.5594L119.6 63.8464C133.792 64.1864 138.616 62.8273 142.835 57.3013C145.534 53.7673 145.572 53.5053 145.881 36.4733C146.171 20.5493 146.027 18.8343 144.005 14.1353C141.642 8.64129 136.677 3.62927 131.423 1.43427C126.601 -0.580732 95.6198 -0.43173 91.8308 1.62427Z" fill="#E02828"/>
<path d="M17.6758 1.53427C12.3028 3.44927 5.47084 10.4283 3.60284 15.9113C2.36384 19.5463 2.07184 25.8324 2.08984 48.4874C2.11484 80.5304 2.54284 82.7062 9.69984 87.1542C13.4488 89.4852 14.1858 89.5592 33.5678 89.5592H53.5678V70.5593L46.7348 70.0593C40.5758 69.6083 39.6138 69.2374 36.9848 66.2934C34.5458 63.5624 34.0678 62.1664 34.0678 57.7664C34.0678 49.0484 38.6038 45.0594 48.5178 45.0594H54.0678V34.7073C54.0678 25.6183 54.3418 23.9513 56.3178 21.0493C60.2868 15.2183 63.4588 13.5593 70.6408 13.5593H77.0678V10.2093C77.0678 7.73329 73.6678 3.45926 73.6678 3.45926C73.6678 3.45926 71.2322 0.940749 70 0.500018C68.7678 0.0592872 45.9178 0.103275 45.9178 0.103275C27.7858 0.136275 20.5738 0.501274 17.6758 1.53427Z" fill="#EFAC2F"/>
<path d="M17.6758 1.53427C12.3028 3.44927 5.47084 10.4283 3.60284 15.9113C2.36384 19.5463 2.07184 25.8324 2.08984 48.4874C2.11484 80.5304 2.54284 82.7062 9.69984 87.1542C13.4488 89.4852 14.1858 89.5592 33.5678 89.5592H53.5678V70.5593L46.7348 70.0593C40.5758 69.6083 39.6138 69.2374 36.9848 66.2934C34.5458 63.5624 34.0678 62.1664 34.0678 57.7664C34.0678 49.0484 38.6038 45.0594 48.5178 45.0594H54.0678V34.7073C54.0678 25.6183 54.3418 23.9513 56.3178 21.0493C60.2868 15.2183 63.4588 13.5593 70.6408 13.5593H77.0678V10.2093C77.0678 7.73329 73.6678 3.45926 73.6678 3.45926C73.6678 3.45926 71.2322 0.940749 70 0.500018C68.7678 0.0592872 45.9178 0.103275 45.9178 0.103275C27.7858 0.136275 20.5738 0.501274 17.6758 1.53427Z" fill="#EFAC2F"/>
<path d="M83.0678 93.0912C83.0678 117.874 83.6548 121.433 88.2338 124.431C89.5178 125.271 92.5928 126.234 95.0678 126.571C103.184 127.678 104.109 128.077 106.095 131.336C108.591 135.429 108.602 140.73 106.122 144.492C103.555 148.386 100.457 149.981 95.3768 150.024C93.0718 150.043 90.9078 150.509 90.5678 151.059C90.1638 151.713 96.6358 152.051 109.259 152.037C131.414 152.012 134.117 151.324 140.256 144.153C145.865 137.599 146.568 133.581 146.568 108.059C146.568 95.6842 146.231 84.3563 145.818 82.8863C144.692 78.8723 140.151 74.0012 135.609 71.9392C132.049 70.3222 128.681 70.1003 107.318 70.0813L83.0678 70.0593V93.0912Z" fill="#455DD5"/>
<path d="M12.6868 97.0932C8.92084 98.2212 5.14984 101.762 3.43884 105.777C1.29384 110.81 1.61984 130.477 3.93284 135.568C6.21784 140.597 11.8468 145.592 19.0218 148.958L24.5678 151.559H53.3158C71.7908 151.559 82.0778 151.202 82.1008 150.559C82.1208 150.009 80.5398 149.227 78.5868 148.821C72.7068 147.6 67.5968 144.441 62.7158 139.012C56.0868 131.639 54.0678 124.506 54.0678 108.454V96.0592L34.8178 96.1452C24.2298 96.1922 14.2718 96.6192 12.6868 97.0932Z" fill="#63B243"/>
<path d="M91.8308 1.62427C86.7088 4.40327 86.0678 7.22631 86.0678 27.0093V45.0594H92.6178C103.65 45.0594 108.504 49.4484 107.92 58.8954L107.632 63.5594L119.6 63.8464C133.792 64.1864 138.616 62.8273 142.835 57.3013C145.534 53.7673 145.572 53.5053 145.881 36.4733C146.171 20.5493 146.027 18.8343 144.005 14.1353C141.642 8.64129 136.677 3.62927 131.423 1.43427C126.601 -0.580732 95.6198 -0.43173 91.8308 1.62427Z" fill="#E02828"/>
<path d="M17.6758 1.53427C12.3028 3.44927 5.47084 10.4283 3.60284 15.9113C2.36384 19.5463 2.07184 25.8324 2.08984 48.4874C2.11484 80.5304 2.54284 82.7062 9.69984 87.1542C13.4488 89.4852 14.1858 89.5592 33.5678 89.5592H53.5678V70.5593L46.7348 70.0593C40.5758 69.6083 39.6138 69.2374 36.9848 66.2934C34.5458 63.5624 34.0678 62.1664 34.0678 57.7664C34.0678 49.0484 38.6038 45.0594 48.5178 45.0594H54.0678V34.7073C54.0678 25.6183 54.3418 23.9513 56.3178 21.0493C60.2868 15.2183 63.4588 13.5593 70.6408 13.5593H77.0678V10.2093C77.0678 7.73329 73.6678 3.45926 73.6678 3.45926C73.6678 3.45926 71.2322 0.940749 70 0.500018C68.7678 0.0592872 45.9178 0.103275 45.9178 0.103275C27.7858 0.136275 20.5738 0.501274 17.6758 1.53427Z" fill="url(#paint0_linear_8_162)"/>
</g>
<mask id="path-2-inside-1_8_162" fill="white">
<path d="M188.882 82.4017C184.494 82.4017 181.095 83.6494 178.685 86.145C176.362 88.5544 174.899 92.4698 174.297 97.8911C174.297 98.5796 174.641 98.9238 175.329 98.9238H200.629C201.317 98.9238 201.661 98.5796 201.661 97.8911C201.317 87.5648 197.057 82.4017 188.882 82.4017ZM192.109 140.1C180.837 140.1 172.145 137.174 166.036 131.323C160.012 125.385 157 116.694 157 105.249C157 93.8897 159.711 85.2414 165.132 79.3038C170.553 73.3661 178.384 70.3973 188.624 70.3973C207.728 70.3973 217.538 81.24 218.054 102.925C218.14 104.99 217.409 106.712 215.86 108.088C214.311 109.465 212.504 110.154 210.439 110.154H175.2C174.426 110.154 174.124 110.541 174.297 111.315C174.899 117.081 176.792 121.297 179.976 123.965C183.246 126.547 187.979 127.837 194.175 127.837C198.047 127.837 202.35 127.192 207.083 125.901C208.632 125.471 210.051 125.729 211.342 126.676C212.719 127.622 213.407 128.913 213.407 130.548C213.407 132.527 212.805 134.291 211.6 135.84C210.482 137.303 208.976 138.207 207.083 138.551C202.264 139.584 197.273 140.1 192.109 140.1Z"/>
<path d="M271.865 138.809C269.886 138.809 268.164 138.078 266.702 136.615C265.239 135.152 264.507 133.431 264.507 131.452V49.3575C264.507 47.3783 265.239 45.6572 266.702 44.1943C268.164 42.7314 269.886 42 271.865 42H274.446C276.426 42 278.147 42.7314 279.609 44.1943C281.072 45.6572 281.804 47.3783 281.804 49.3575V99.0528C281.804 99.1389 281.847 99.1819 281.933 99.1819H282.062L301.682 77.1094C304.866 73.4952 308.91 71.6881 313.815 71.6881H319.237C320.614 71.6881 321.56 72.3335 322.076 73.6243C322.679 74.9151 322.507 76.0768 321.56 77.1094L297.939 103.183C297.508 103.7 297.508 104.259 297.939 104.861L321.818 133.259C322.765 134.377 322.894 135.582 322.206 136.873C321.603 138.164 320.614 138.809 319.237 138.809H313.815C308.91 138.809 304.909 136.916 301.811 133.13L282.062 109.25C282.062 109.164 282.019 109.121 281.933 109.121C281.847 109.121 281.804 109.164 281.804 109.25V131.452C281.804 133.431 281.072 135.152 279.609 136.615C278.147 138.078 276.426 138.809 274.446 138.809H271.865Z"/>
<path d="M341.957 138.809C339.978 138.809 338.257 138.078 336.794 136.615C335.331 135.152 334.6 133.431 334.6 131.452V79.0456C334.6 77.0664 335.331 75.3454 336.794 73.8825C338.257 72.4196 339.978 71.6881 341.957 71.6881H345.314C347.293 71.6881 349.014 72.4196 350.477 73.8825C351.94 75.3454 352.671 77.0664 352.671 79.0456V131.452C352.671 133.431 351.94 135.152 350.477 136.615C349.014 138.078 347.293 138.809 345.314 138.809H341.957ZM341.957 57.4894C339.978 57.4894 338.257 56.758 336.794 55.2951C335.331 53.8322 334.6 52.1112 334.6 50.1319V49.3575C334.6 47.3783 335.331 45.6572 336.794 44.1943C338.257 42.7314 339.978 42 341.957 42H345.314C347.293 42 349.014 42.7314 350.477 44.1943C351.94 45.6572 352.671 47.3783 352.671 49.3575V50.1319C352.671 52.1112 351.94 53.8322 350.477 55.2951C349.014 56.758 347.293 57.4894 345.314 57.4894H341.957Z"/>
<path fill-rule="evenodd" clip-rule="evenodd" d="M232.181 136.615C233.644 138.078 235.365 138.809 237.344 138.809H240.7C242.68 138.809 244.401 138.078 245.864 136.615C247.326 135.152 248.058 133.431 248.058 131.452V79.0456C248.058 77.0664 247.326 75.3454 245.864 73.8825C244.401 72.4196 242.68 71.6881 240.7 71.6881H237.344C235.365 71.6881 233.644 72.4196 232.181 73.8825C230.718 75.3454 229.987 77.0664 229.987 79.0456V131.452C229.987 133.431 230.718 135.152 232.181 136.615Z"/>
<path d="M237.344 57.4894C235.365 57.4894 233.644 56.758 232.181 55.2951C230.718 53.8322 229.987 52.1112 229.987 50.1319V49.3575C229.987 47.3783 230.718 45.6572 232.181 44.1943C233.644 42.7314 235.365 42 237.344 42H240.7C242.68 42 244.401 42.7314 245.864 44.1943C247.326 45.6572 248.058 47.3783 248.058 49.3575V50.1319C248.058 52.1112 247.326 53.8322 245.864 55.2951C244.401 56.758 242.68 57.4894 240.7 57.4894H237.344Z"/>
<path d="M237.344 57.4894C235.365 57.4894 233.644 56.758 232.181 55.2951C230.718 53.8322 229.987 52.1112 229.987 50.1319V49.3575C229.987 47.3783 230.718 45.6572 232.181 44.1943C233.644 42.7314 235.365 42 237.344 42H240.7C242.68 42 244.401 42.7314 245.864 44.1943C247.326 45.6572 248.058 47.3783 248.058 49.3575V50.1319C248.058 52.1112 247.326 53.8322 245.864 55.2951C244.401 56.758 242.68 57.4894 240.7 57.4894H237.344Z"/>
</mask>
<path d="M188.882 82.4017C184.494 82.4017 181.095 83.6494 178.685 86.145C176.362 88.5544 174.899 92.4698 174.297 97.8911C174.297 98.5796 174.641 98.9238 175.329 98.9238H200.629C201.317 98.9238 201.661 98.5796 201.661 97.8911C201.317 87.5648 197.057 82.4017 188.882 82.4017ZM192.109 140.1C180.837 140.1 172.145 137.174 166.036 131.323C160.012 125.385 157 116.694 157 105.249C157 93.8897 159.711 85.2414 165.132 79.3038C170.553 73.3661 178.384 70.3973 188.624 70.3973C207.728 70.3973 217.538 81.24 218.054 102.925C218.14 104.99 217.409 106.712 215.86 108.088C214.311 109.465 212.504 110.154 210.439 110.154H175.2C174.426 110.154 174.124 110.541 174.297 111.315C174.899 117.081 176.792 121.297 179.976 123.965C183.246 126.547 187.979 127.837 194.175 127.837C198.047 127.837 202.35 127.192 207.083 125.901C208.632 125.471 210.051 125.729 211.342 126.676C212.719 127.622 213.407 128.913 213.407 130.548C213.407 132.527 212.805 134.291 211.6 135.84C210.482 137.303 208.976 138.207 207.083 138.551C202.264 139.584 197.273 140.1 192.109 140.1Z" fill="black"/>
<path d="M271.865 138.809C269.886 138.809 268.164 138.078 266.702 136.615C265.239 135.152 264.507 133.431 264.507 131.452V49.3575C264.507 47.3783 265.239 45.6572 266.702 44.1943C268.164 42.7314 269.886 42 271.865 42H274.446C276.426 42 278.147 42.7314 279.609 44.1943C281.072 45.6572 281.804 47.3783 281.804 49.3575V99.0528C281.804 99.1389 281.847 99.1819 281.933 99.1819H282.062L301.682 77.1094C304.866 73.4952 308.91 71.6881 313.815 71.6881H319.237C320.614 71.6881 321.56 72.3335 322.076 73.6243C322.679 74.9151 322.507 76.0768 321.56 77.1094L297.939 103.183C297.508 103.7 297.508 104.259 297.939 104.861L321.818 133.259C322.765 134.377 322.894 135.582 322.206 136.873C321.603 138.164 320.614 138.809 319.237 138.809H313.815C308.91 138.809 304.909 136.916 301.811 133.13L282.062 109.25C282.062 109.164 282.019 109.121 281.933 109.121C281.847 109.121 281.804 109.164 281.804 109.25V131.452C281.804 133.431 281.072 135.152 279.609 136.615C278.147 138.078 276.426 138.809 274.446 138.809H271.865Z" fill="black"/>
<path d="M341.957 138.809C339.978 138.809 338.257 138.078 336.794 136.615C335.331 135.152 334.6 133.431 334.6 131.452V79.0456C334.6 77.0664 335.331 75.3454 336.794 73.8825C338.257 72.4196 339.978 71.6881 341.957 71.6881H345.314C347.293 71.6881 349.014 72.4196 350.477 73.8825C351.94 75.3454 352.671 77.0664 352.671 79.0456V131.452C352.671 133.431 351.94 135.152 350.477 136.615C349.014 138.078 347.293 138.809 345.314 138.809H341.957ZM341.957 57.4894C339.978 57.4894 338.257 56.758 336.794 55.2951C335.331 53.8322 334.6 52.1112 334.6 50.1319V49.3575C334.6 47.3783 335.331 45.6572 336.794 44.1943C338.257 42.7314 339.978 42 341.957 42H345.314C347.293 42 349.014 42.7314 350.477 44.1943C351.94 45.6572 352.671 47.3783 352.671 49.3575V50.1319C352.671 52.1112 351.94 53.8322 350.477 55.2951C349.014 56.758 347.293 57.4894 345.314 57.4894H341.957Z" fill="black"/>
<path fill-rule="evenodd" clip-rule="evenodd" d="M232.181 136.615C233.644 138.078 235.365 138.809 237.344 138.809H240.7C242.68 138.809 244.401 138.078 245.864 136.615C247.326 135.152 248.058 133.431 248.058 131.452V79.0456C248.058 77.0664 247.326 75.3454 245.864 73.8825C244.401 72.4196 242.68 71.6881 240.7 71.6881H237.344C235.365 71.6881 233.644 72.4196 232.181 73.8825C230.718 75.3454 229.987 77.0664 229.987 79.0456V131.452C229.987 133.431 230.718 135.152 232.181 136.615Z" fill="black"/>
<path d="M237.344 57.4894C235.365 57.4894 233.644 56.758 232.181 55.2951C230.718 53.8322 229.987 52.1112 229.987 50.1319V49.3575C229.987 47.3783 230.718 45.6572 232.181 44.1943C233.644 42.7314 235.365 42 237.344 42H240.7C242.68 42 244.401 42.7314 245.864 44.1943C247.326 45.6572 248.058 47.3783 248.058 49.3575V50.1319C248.058 52.1112 247.326 53.8322 245.864 55.2951C244.401 56.758 242.68 57.4894 240.7 57.4894H237.344Z" fill="#63B243"/>
<path d="M237.344 57.4894C235.365 57.4894 233.644 56.758 232.181 55.2951C230.718 53.8322 229.987 52.1112 229.987 50.1319V49.3575C229.987 47.3783 230.718 45.6572 232.181 44.1943C233.644 42.7314 235.365 42 237.344 42H240.7C242.68 42 244.401 42.7314 245.864 44.1943C247.326 45.6572 248.058 47.3783 248.058 49.3575V50.1319C248.058 52.1112 247.326 53.8322 245.864 55.2951C244.401 56.758 242.68 57.4894 240.7 57.4894H237.344Z" fill="#63B243"/>
<path d="M188.882 82.4017C184.494 82.4017 181.095 83.6494 178.685 86.145C176.362 88.5544 174.899 92.4698 174.297 97.8911C174.297 98.5796 174.641 98.9238 175.329 98.9238H200.629C201.317 98.9238 201.661 98.5796 201.661 97.8911C201.317 87.5648 197.057 82.4017 188.882 82.4017ZM192.109 140.1C180.837 140.1 172.145 137.174 166.036 131.323C160.012 125.385 157 116.694 157 105.249C157 93.8897 159.711 85.2414 165.132 79.3038C170.553 73.3661 178.384 70.3973 188.624 70.3973C207.728 70.3973 217.538 81.24 218.054 102.925C218.14 104.99 217.409 106.712 215.86 108.088C214.311 109.465 212.504 110.154 210.439 110.154H175.2C174.426 110.154 174.124 110.541 174.297 111.315C174.899 117.081 176.792 121.297 179.976 123.965C183.246 126.547 187.979 127.837 194.175 127.837C198.047 127.837 202.35 127.192 207.083 125.901C208.632 125.471 210.051 125.729 211.342 126.676C212.719 127.622 213.407 128.913 213.407 130.548C213.407 132.527 212.805 134.291 211.6 135.84C210.482 137.303 208.976 138.207 207.083 138.551C202.264 139.584 197.273 140.1 192.109 140.1Z" stroke="black" stroke-width="2" mask="url(#path-2-inside-1_8_162)"/>
<path d="M271.865 138.809C269.886 138.809 268.164 138.078 266.702 136.615C265.239 135.152 264.507 133.431 264.507 131.452V49.3575C264.507 47.3783 265.239 45.6572 266.702 44.1943C268.164 42.7314 269.886 42 271.865 42H274.446C276.426 42 278.147 42.7314 279.609 44.1943C281.072 45.6572 281.804 47.3783 281.804 49.3575V99.0528C281.804 99.1389 281.847 99.1819 281.933 99.1819H282.062L301.682 77.1094C304.866 73.4952 308.91 71.6881 313.815 71.6881H319.237C320.614 71.6881 321.56 72.3335 322.076 73.6243C322.679 74.9151 322.507 76.0768 321.56 77.1094L297.939 103.183C297.508 103.7 297.508 104.259 297.939 104.861L321.818 133.259C322.765 134.377 322.894 135.582 322.206 136.873C321.603 138.164 320.614 138.809 319.237 138.809H313.815C308.91 138.809 304.909 136.916 301.811 133.13L282.062 109.25C282.062 109.164 282.019 109.121 281.933 109.121C281.847 109.121 281.804 109.164 281.804 109.25V131.452C281.804 133.431 281.072 135.152 279.609 136.615C278.147 138.078 276.426 138.809 274.446 138.809H271.865Z" stroke="black" stroke-width="2" mask="url(#path-2-inside-1_8_162)"/>
<path d="M341.957 138.809C339.978 138.809 338.257 138.078 336.794 136.615C335.331 135.152 334.6 133.431 334.6 131.452V79.0456C334.6 77.0664 335.331 75.3454 336.794 73.8825C338.257 72.4196 339.978 71.6881 341.957 71.6881H345.314C347.293 71.6881 349.014 72.4196 350.477 73.8825C351.94 75.3454 352.671 77.0664 352.671 79.0456V131.452C352.671 133.431 351.94 135.152 350.477 136.615C349.014 138.078 347.293 138.809 345.314 138.809H341.957ZM341.957 57.4894C339.978 57.4894 338.257 56.758 336.794 55.2951C335.331 53.8322 334.6 52.1112 334.6 50.1319V49.3575C334.6 47.3783 335.331 45.6572 336.794 44.1943C338.257 42.7314 339.978 42 341.957 42H345.314C347.293 42 349.014 42.7314 350.477 44.1943C351.94 45.6572 352.671 47.3783 352.671 49.3575V50.1319C352.671 52.1112 351.94 53.8322 350.477 55.2951C349.014 56.758 347.293 57.4894 345.314 57.4894H341.957Z" stroke="black" stroke-width="2" mask="url(#path-2-inside-1_8_162)"/>
<path fill-rule="evenodd" clip-rule="evenodd" d="M232.181 136.615C233.644 138.078 235.365 138.809 237.344 138.809H240.7C242.68 138.809 244.401 138.078 245.864 136.615C247.326 135.152 248.058 133.431 248.058 131.452V79.0456C248.058 77.0664 247.326 75.3454 245.864 73.8825C244.401 72.4196 242.68 71.6881 240.7 71.6881H237.344C235.365 71.6881 233.644 72.4196 232.181 73.8825C230.718 75.3454 229.987 77.0664 229.987 79.0456V131.452C229.987 133.431 230.718 135.152 232.181 136.615Z" stroke="black" stroke-width="2" mask="url(#path-2-inside-1_8_162)"/>
<path d="M237.344 57.4894C235.365 57.4894 233.644 56.758 232.181 55.2951C230.718 53.8322 229.987 52.1112 229.987 50.1319V49.3575C229.987 47.3783 230.718 45.6572 232.181 44.1943C233.644 42.7314 235.365 42 237.344 42H240.7C242.68 42 244.401 42.7314 245.864 44.1943C247.326 45.6572 248.058 47.3783 248.058 49.3575V50.1319C248.058 52.1112 247.326 53.8322 245.864 55.2951C244.401 56.758 242.68 57.4894 240.7 57.4894H237.344Z" stroke="black" stroke-width="2" mask="url(#path-2-inside-1_8_162)"/>
<path d="M237.344 57.4894C235.365 57.4894 233.644 56.758 232.181 55.2951C230.718 53.8322 229.987 52.1112 229.987 50.1319V49.3575C229.987 47.3783 230.718 45.6572 232.181 44.1943C233.644 42.7314 235.365 42 237.344 42H240.7C242.68 42 244.401 42.7314 245.864 44.1943C247.326 45.6572 248.058 47.3783 248.058 49.3575V50.1319C248.058 52.1112 247.326 53.8322 245.864 55.2951C244.401 56.758 242.68 57.4894 240.7 57.4894H237.344Z" stroke="black" stroke-width="2" mask="url(#path-2-inside-1_8_162)"/>
<path d="M341.958 42.5H345.314C347.154 42.5001 348.75 43.1741 350.124 44.5479C351.497 45.9217 352.171 47.5174 352.171 49.3574V50.1318C352.171 51.9718 351.497 53.5676 350.124 54.9414C348.75 56.3152 347.154 56.9892 345.314 56.9893H341.958C340.117 56.9892 338.522 56.3152 337.148 54.9414C335.774 53.5676 335.1 51.9718 335.1 50.1318V49.3574C335.1 47.5174 335.774 45.9217 337.148 44.5479C338.522 43.174 340.117 42.5 341.958 42.5Z" fill="#E02828" stroke="#E02828"/>
<path d="M237.357 57.4895C235.378 57.4895 233.657 56.758 232.194 55.2951C230.731 53.8322 230 52.1112 230 50.132V49.3575C230 47.3783 230.731 45.6572 232.194 44.1943C233.657 42.7314 235.378 42 237.357 42H240.714C242.693 42 244.414 42.7314 245.877 44.1943C247.34 45.6572 248.071 47.3783 248.071 49.3575V50.132C248.071 52.1112 247.34 53.8322 245.877 55.2951C244.414 56.758 242.693 57.4895 240.714 57.4895H237.357Z" fill="#63B243"/>
<path d="M237.357 57.4895C235.378 57.4895 233.657 56.758 232.194 55.2951C230.731 53.8322 230 52.1112 230 50.132V49.3575C230 47.3783 230.731 45.6572 232.194 44.1943C233.657 42.7314 235.378 42 237.357 42H240.714C242.693 42 244.414 42.7314 245.877 44.1943C247.34 45.6572 248.071 47.3783 248.071 49.3575V50.132C248.071 52.1112 247.34 53.8322 245.877 55.2951C244.414 56.758 242.693 57.4895 240.714 57.4895H237.357Z" fill="#63B243"/>
<path d="M237.357 57.4895C235.378 57.4895 233.657 56.758 232.194 55.2951C230.731 53.8322 230 52.1112 230 50.132V49.3575C230 47.3783 230.731 45.6572 232.194 44.1943C233.657 42.7314 235.378 42 237.357 42H240.714C242.693 42 244.414 42.7314 245.877 44.1943C247.34 45.6572 248.071 47.3783 248.071 49.3575V50.132C248.071 52.1112 247.34 53.8322 245.877 55.2951C244.414 56.758 242.693 57.4895 240.714 57.4895H237.357Z" stroke="#63B243"/>
<defs>
<filter id="filter0_d_8_162" x="0" y="0" width="148.568" height="156.037" filterUnits="userSpaceOnUse" color-interpolation-filters="sRGB">
<feFlood flood-opacity="0" result="BackgroundImageFix"/>
<feColorMatrix in="SourceAlpha" type="matrix" values="0 0 0 0 0 0 0 0 0 0 0 0 0 0 0 0 0 0 127 0" result="hardAlpha"/>
<feOffset dy="2"/>
<feGaussianBlur stdDeviation="1"/>
<feComposite in2="hardAlpha" operator="out"/>
<feColorMatrix type="matrix" values="0 0 0 0 0 0 0 0 0 0 0 0 0 0 0 0 0 0 0.25 0"/>
<feBlend mode="normal" in2="BackgroundImageFix" result="effect1_dropShadow_8_162"/>
<feBlend mode="normal" in="SourceGraphic" in2="effect1_dropShadow_8_162" result="shape"/>
</filter>
<linearGradient id="paint0_linear_8_162" x1="74.2839" y1="0" x2="74.2839" y2="152.037" gradientUnits="userSpaceOnUse">
<stop stop-color="#EFAC2F"/>
<stop offset="1" stop-color="#FFBB3E"/>
</linearGradient>
</defs>
</svg>
